<?xml version="1.0" encoding="utf-8"?>
<!-- Generator: Adobe Illustrator 23.0.0, SVG Export Plug-In . SVG Version: 6.00 Build 0)  -->
<svg version="1.1" id="Layer_1" xmlns="http://www.w3.org/2000/svg" xmlns:xlink="http://www.w3.org/1999/xlink" x="0px" y="0px"
	 viewBox="0 0 300 100" style="enable-background:new 0 0 300 100;" xml:space="preserve">
<style type="text/css">
	.st0{fill:#0095D4;stroke:#0095D4;stroke-miterlimit:10;}
	.st1{fill:#333333;}
	.st2{fill:#0095FF;}
	.st3{fill:#0095D4;}
	.st4{fill:none;}
</style>
<g>
	<g>
		<path class="st0" d="M91.27,45.96c0-2.04,0.29-3.77,0.87-5.2c0.58-1.43,1.44-2.6,2.59-3.51c1.15-0.91,2.58-1.57,4.29-1.99
			c1.71-0.42,3.7-0.63,5.97-0.63c1.58,0,3.12,0.15,4.61,0.46c1.49,0.31,3,0.8,4.54,1.48c0.19,0.09,0.34,0.21,0.42,0.34
			c0.08,0.14,0.13,0.27,0.13,0.4c0,0.16-0.06,0.29-0.16,0.41c-0.11,0.12-0.25,0.18-0.42,0.18c-0.05,0-0.17-0.03-0.35-0.1
			c-1.4-0.63-2.86-1.1-4.35-1.41c-1.5-0.31-2.97-0.47-4.41-0.47c-2.17,0-4.03,0.19-5.56,0.58c-1.54,0.38-2.8,0.99-3.78,1.8
			c-0.98,0.81-1.7,1.85-2.15,3.11c-0.45,1.26-0.68,2.77-0.68,4.54s0.23,3.28,0.68,4.54c0.45,1.26,1.17,2.3,2.15,3.12
			c0.98,0.81,2.24,1.42,3.78,1.8c1.54,0.39,3.39,0.58,5.56,0.58c1.44,0,2.91-0.16,4.41-0.47c1.5-0.31,2.95-0.78,4.35-1.41
			c0.1-0.05,0.21-0.08,0.33-0.08c0.18,0,0.33,0.06,0.45,0.18c0.12,0.12,0.17,0.26,0.17,0.41c0,0.13-0.04,0.26-0.13,0.39
			c-0.09,0.13-0.24,0.24-0.44,0.33c-1.55,0.68-3.07,1.17-4.55,1.48c-1.48,0.31-3.02,0.46-4.6,0.46c-2.27,0-4.26-0.21-5.97-0.63
			c-1.72-0.42-3.14-1.08-4.29-1.99c-1.15-0.91-2.01-2.08-2.59-3.51C91.56,49.74,91.27,48,91.27,45.96z"/>
		<path class="st0" d="M128.13,36.05c0.2-0.38,0.35-0.64,0.46-0.79c0.11-0.14,0.27-0.21,0.49-0.21c0.17,0,0.32,0.07,0.45,0.21
			c0.13,0.14,0.3,0.4,0.5,0.79l10.1,19.52c0.14,0.26,0.2,0.52,0.2,0.77c0,0.23-0.06,0.42-0.18,0.55c-0.12,0.13-0.27,0.2-0.44,0.2
			c-0.17,0-0.34-0.06-0.5-0.19c-0.17-0.13-0.33-0.35-0.5-0.68l-3.11-6.04h-13.03l-3.15,6.12c-0.13,0.27-0.29,0.47-0.47,0.6
			c-0.18,0.12-0.35,0.19-0.52,0.19c-0.21,0-0.36-0.08-0.46-0.24c-0.1-0.16-0.15-0.37-0.15-0.63c0-0.11,0.02-0.21,0.06-0.31
			c0.04-0.1,0.09-0.22,0.16-0.35L128.13,36.05z M135.07,49.02l-5.98-11.7l-5.98,11.7H135.07z"/>
		<path class="st0" d="M163.04,42.79c0,1.2-0.14,2.22-0.41,3.04c-0.28,0.83-0.66,1.51-1.14,2.05c-0.49,0.54-1.07,0.96-1.77,1.26
			c-0.69,0.3-1.45,0.52-2.28,0.66c-0.83,0.15-1.72,0.22-2.66,0.22c-0.95,0-1.92,0-2.92,0h-5.45v5.36c0,0.38-0.05,0.73-0.14,1.03
			c-0.09,0.31-0.28,0.46-0.58,0.46c-0.35,0-0.58-0.15-0.68-0.44c-0.1-0.29-0.16-0.64-0.16-1.05V35.83c0-0.19,0.02-0.34,0.05-0.44
			c0.03-0.1,0.08-0.17,0.15-0.2c0.07-0.04,0.17-0.06,0.28-0.06c0.11,0,0.26,0,0.45,0h6.08c1.11,0,2.15,0,3.14,0
			c0.98,0,1.89,0.1,2.72,0.31c0.83,0.2,1.57,0.49,2.23,0.84c0.66,0.36,1.22,0.83,1.68,1.42c0.46,0.59,0.81,1.3,1.05,2.13
			C162.91,40.65,163.04,41.64,163.04,42.79z M161.48,42.82c0-1.36-0.19-2.47-0.58-3.32c-0.38-0.85-0.97-1.51-1.76-1.98
			c-0.79-0.47-1.78-0.79-2.99-0.95c-1.21-0.16-2.64-0.25-4.3-0.25h-5.45v12.52h5.45c1.66,0,3.09-0.05,4.31-0.17
			c1.22-0.11,2.21-0.37,3-0.79c0.79-0.41,1.37-1.02,1.75-1.82C161.29,45.28,161.48,44.19,161.48,42.82z"/>
		<path class="st0" d="M174.79,46.39l8.36-10.86c0.23-0.31,0.49-0.47,0.77-0.47c0.4,0,0.6,0.23,0.6,0.7c0,0.22-0.1,0.46-0.31,0.73
			l-8.64,11.15v7.88c0,0.38-0.05,0.7-0.14,0.96c-0.09,0.26-0.29,0.39-0.59,0.39c-0.18,0-0.33-0.04-0.43-0.11
			c-0.1-0.07-0.19-0.17-0.25-0.29c-0.06-0.13-0.1-0.26-0.12-0.42c-0.02-0.16-0.03-0.32-0.03-0.49v-7.96l-8.67-11.11
			c-0.12-0.14-0.2-0.27-0.25-0.37c-0.04-0.1-0.06-0.24-0.06-0.41c0-0.19,0.06-0.35,0.17-0.48c0.12-0.12,0.26-0.19,0.43-0.19
			c0.27,0,0.53,0.17,0.79,0.49L174.79,46.39z"/>
		<path class="st0" d="M209.31,50.49c0,1.33-0.24,2.42-0.71,3.24c-0.48,0.83-1.13,1.48-1.97,1.94c-0.84,0.46-1.82,0.78-2.95,0.95
			c-1.14,0.17-2.36,0.26-3.66,0.26h-10.54c-0.21,0-0.36-0.06-0.47-0.2c-0.1-0.13-0.16-0.29-0.16-0.49v-20.4
			c0-0.23,0.07-0.41,0.2-0.54c0.13-0.12,0.3-0.19,0.51-0.19h8.38c0.88,0,1.75,0,2.6,0c0.85,0,1.66,0.05,2.42,0.17
			c0.76,0.11,1.46,0.28,2.1,0.5c0.64,0.22,1.2,0.54,1.66,0.94c0.47,0.41,0.83,0.92,1.1,1.53c0.26,0.62,0.39,1.37,0.39,2.26
			c0,0.76-0.1,1.4-0.29,1.93c-0.19,0.52-0.44,0.97-0.74,1.32c-0.3,0.35-0.63,0.63-1,0.84c-0.37,0.2-0.72,0.35-1.06,0.45
			c-0.34,0.1-0.65,0.16-0.93,0.19c-0.28,0.03-0.49,0.04-0.62,0.04h-0.13c0.74,0.08,1.46,0.21,2.16,0.41
			c0.7,0.19,1.31,0.49,1.86,0.89c0.54,0.4,0.98,0.92,1.32,1.56C209.13,48.74,209.3,49.54,209.31,50.49z M206.68,40.5
			c0-0.67-0.1-1.26-0.31-1.77c-0.21-0.52-0.6-0.95-1.19-1.3c-0.58-0.35-1.4-0.62-2.45-0.8c-1.05-0.18-2.41-0.27-4.1-0.27h-8.21v8.41
			h8.65c1.32,0,2.45-0.05,3.41-0.17c0.96-0.11,1.75-0.32,2.37-0.64c0.62-0.31,1.08-0.74,1.38-1.29
			C206.53,42.1,206.68,41.38,206.68,40.5z M207.76,50.49c0-0.9-0.21-1.65-0.61-2.25c-0.41-0.6-0.99-1.08-1.74-1.43
			c-0.75-0.35-1.66-0.6-2.73-0.75c-1.07-0.15-2.28-0.22-3.61-0.22h-8.65v9.76h10.3c1.65,0,2.94-0.14,3.89-0.43
			c0.94-0.29,1.65-0.67,2.11-1.14c0.46-0.47,0.76-1.01,0.87-1.63C207.7,51.78,207.76,51.14,207.76,50.49z"/>
		<path class="st0" d="M223.56,36.05c0.19-0.38,0.35-0.64,0.46-0.79c0.11-0.14,0.28-0.21,0.5-0.21c0.17,0,0.32,0.07,0.45,0.21
			c0.13,0.14,0.3,0.4,0.5,0.79l10.1,19.52c0.13,0.26,0.2,0.52,0.2,0.77c0,0.23-0.06,0.42-0.18,0.55c-0.12,0.13-0.27,0.2-0.44,0.2
			c-0.17,0-0.34-0.06-0.5-0.19c-0.17-0.13-0.33-0.35-0.5-0.68l-3.11-6.04H218l-3.15,6.12c-0.13,0.27-0.29,0.47-0.47,0.6
			c-0.18,0.12-0.35,0.19-0.52,0.19c-0.21,0-0.36-0.08-0.46-0.24c-0.1-0.16-0.15-0.37-0.15-0.63c0-0.11,0.02-0.21,0.06-0.31
			c0.04-0.1,0.1-0.22,0.16-0.35L223.56,36.05z M230.5,49.02l-5.98-11.7l-5.98,11.7H230.5z"/>
		<path class="st0" d="M258.23,41.82c0,0.8-0.11,1.5-0.33,2.11c-0.22,0.6-0.52,1.13-0.89,1.58c-0.37,0.45-0.81,0.82-1.32,1.12
			c-0.51,0.3-1.05,0.55-1.62,0.74c-0.57,0.19-1.17,0.33-1.78,0.42c-0.62,0.09-1.22,0.14-1.8,0.14l6.73,7.6
			c0.11,0.12,0.19,0.24,0.23,0.36c0.04,0.12,0.07,0.24,0.08,0.34c0,0.18-0.06,0.34-0.17,0.46c-0.12,0.12-0.27,0.19-0.45,0.19
			c-0.13,0-0.28-0.03-0.43-0.1c-0.15-0.07-0.3-0.19-0.45-0.37l-7.34-8.39h-6.85v7.37c0,0.2-0.01,0.38-0.03,0.56
			c-0.02,0.18-0.05,0.33-0.1,0.47c-0.05,0.14-0.12,0.25-0.21,0.33c-0.09,0.09-0.21,0.13-0.36,0.13c-0.35,0-0.58-0.15-0.69-0.44
			c-0.11-0.3-0.17-0.64-0.17-1.05v-19.6c0-0.19,0.01-0.34,0.01-0.44c0.01-0.1,0.03-0.17,0.06-0.21c0.04-0.04,0.1-0.06,0.19-0.06
			c0.09,0,0.23,0,0.41,0h5.31c1.13,0,2.22,0,3.25,0c1.03,0,1.99,0.07,2.87,0.21c0.88,0.14,1.69,0.35,2.41,0.63
			c0.72,0.28,1.33,0.68,1.84,1.18c0.51,0.51,0.9,1.14,1.17,1.9C258.09,39.77,258.23,40.71,258.23,41.82z M256.67,41.77
			c0-1.31-0.22-2.33-0.67-3.08c-0.44-0.75-1.11-1.3-1.98-1.66c-0.88-0.36-1.96-0.55-3.26-0.55c-1.29,0-2.79,0-4.48,0h-4.43v10.25
			h6.86c1.06,0,2.07-0.05,3.04-0.16c0.96-0.11,1.81-0.33,2.53-0.68c0.72-0.35,1.3-0.85,1.74-1.5
			C256.46,43.74,256.67,42.87,256.67,41.77z"/>
		<path class="st0" d="M272.2,36.05c0.19-0.38,0.35-0.64,0.46-0.79c0.11-0.14,0.28-0.21,0.5-0.21c0.17,0,0.32,0.07,0.45,0.21
			c0.13,0.14,0.3,0.4,0.5,0.79l10.1,19.52c0.13,0.26,0.2,0.52,0.2,0.77c0,0.23-0.06,0.42-0.18,0.55c-0.12,0.13-0.27,0.2-0.44,0.2
			c-0.17,0-0.34-0.06-0.5-0.19c-0.17-0.13-0.33-0.35-0.5-0.68l-3.11-6.04h-13.03l-3.15,6.12c-0.13,0.27-0.29,0.47-0.47,0.6
			c-0.18,0.12-0.35,0.19-0.52,0.19c-0.21,0-0.36-0.08-0.46-0.24c-0.1-0.16-0.15-0.37-0.15-0.63c0-0.11,0.02-0.21,0.06-0.31
			c0.04-0.1,0.09-0.22,0.16-0.35L272.2,36.05z M279.14,49.02l-5.98-11.7l-5.98,11.7H279.14z"/>
	</g>
	<g>
		<path class="st1" d="M93.99,65.37l0.66-0.05c0.03,0.24,0.1,0.44,0.22,0.6c0.11,0.16,0.29,0.28,0.53,0.38
			c0.24,0.09,0.51,0.14,0.81,0.14c0.27,0,0.5-0.04,0.71-0.11c0.2-0.07,0.36-0.17,0.46-0.3c0.1-0.13,0.15-0.26,0.15-0.42
			c0-0.15-0.05-0.29-0.15-0.4c-0.09-0.11-0.25-0.21-0.47-0.29c-0.14-0.05-0.46-0.13-0.95-0.24c-0.49-0.11-0.83-0.21-1.02-0.3
			c-0.25-0.12-0.44-0.27-0.57-0.45c-0.12-0.18-0.19-0.38-0.19-0.6c0-0.25,0.08-0.47,0.23-0.69c0.15-0.21,0.37-0.38,0.66-0.49
			c0.29-0.11,0.61-0.17,0.97-0.17c0.39,0,0.74,0.06,1.04,0.17c0.3,0.12,0.53,0.29,0.69,0.51c0.16,0.22,0.25,0.48,0.26,0.77
			l-0.67,0.05c-0.04-0.31-0.16-0.54-0.37-0.7c-0.21-0.16-0.51-0.24-0.92-0.24c-0.42,0-0.73,0.07-0.93,0.21
			c-0.19,0.14-0.29,0.31-0.29,0.51c0,0.18,0.07,0.32,0.21,0.43c0.13,0.11,0.49,0.23,1.05,0.35c0.57,0.12,0.96,0.22,1.17,0.31
			c0.31,0.13,0.54,0.3,0.68,0.5c0.15,0.2,0.22,0.43,0.22,0.69c0,0.26-0.08,0.5-0.24,0.73c-0.16,0.23-0.39,0.41-0.7,0.53
			c-0.3,0.13-0.64,0.19-1.02,0.19c-0.48,0-0.88-0.06-1.21-0.19c-0.32-0.13-0.58-0.32-0.76-0.58C94.1,65.99,94,65.69,93.99,65.37z"/>
		<path class="st1" d="M103.62,66.93v-4.86h3.83v0.57h-3.13v1.49h2.93v0.57h-2.93v1.66h3.25v0.57H103.62z"/>
		<path class="st1" d="M112.76,64.56c0-0.81,0.24-1.44,0.71-1.9c0.47-0.46,1.08-0.68,1.83-0.68c0.49,0,0.93,0.11,1.32,0.32
			c0.39,0.21,0.69,0.51,0.9,0.9c0.21,0.38,0.31,0.82,0.31,1.3c0,0.49-0.11,0.93-0.33,1.32c-0.21,0.39-0.52,0.68-0.92,0.88
			c-0.4,0.2-0.83,0.3-1.29,0.3c-0.5,0-0.94-0.11-1.34-0.33c-0.39-0.22-0.69-0.52-0.89-0.9C112.87,65.4,112.76,64.99,112.76,64.56z
			 M113.49,64.57c0,0.59,0.17,1.05,0.51,1.38c0.34,0.34,0.77,0.51,1.29,0.51c0.53,0,0.96-0.17,1.3-0.51
			c0.34-0.34,0.51-0.82,0.51-1.45c0-0.39-0.08-0.74-0.22-1.03c-0.15-0.3-0.36-0.52-0.64-0.69c-0.28-0.16-0.59-0.24-0.94-0.24
			c-0.5,0-0.92,0.16-1.28,0.47C113.67,63.32,113.49,63.84,113.49,64.57z"/>
		<path class="st1" d="M132.61,66.36c-0.21,0.22-0.45,0.38-0.7,0.49c-0.25,0.11-0.53,0.17-0.82,0.17c-0.54,0-0.97-0.17-1.29-0.5
			c-0.26-0.28-0.38-0.58-0.38-0.92c0-0.3,0.11-0.57,0.32-0.81c0.21-0.24,0.52-0.45,0.94-0.64c-0.24-0.25-0.4-0.46-0.48-0.61
			c-0.08-0.16-0.12-0.31-0.12-0.45c0-0.29,0.12-0.55,0.37-0.76c0.25-0.21,0.56-0.32,0.94-0.32c0.36,0,0.66,0.1,0.89,0.3
			c0.23,0.2,0.34,0.45,0.34,0.73c0,0.46-0.33,0.86-1,1.18l0.95,1.11c0.11-0.2,0.19-0.42,0.25-0.68l0.67,0.13
			c-0.12,0.42-0.27,0.77-0.47,1.05c0.24,0.3,0.52,0.54,0.83,0.75l-0.44,0.47C133.16,66.89,132.89,66.66,132.61,66.36z M132.2,65.89
			l-1.19-1.36c-0.35,0.19-0.59,0.37-0.71,0.54c-0.12,0.17-0.18,0.33-0.18,0.49c0,0.2,0.08,0.4,0.26,0.61
			c0.17,0.21,0.41,0.32,0.73,0.32c0.19,0,0.4-0.06,0.61-0.17C131.91,66.21,132.08,66.06,132.2,65.89z M131.29,63.82
			c0.28-0.15,0.47-0.29,0.55-0.4c0.08-0.12,0.13-0.24,0.13-0.38c0-0.17-0.06-0.3-0.17-0.4c-0.11-0.11-0.26-0.16-0.43-0.16
			c-0.18,0-0.32,0.05-0.44,0.16c-0.11,0.1-0.17,0.23-0.17,0.38c0,0.08,0.02,0.16,0.06,0.24c0.04,0.08,0.1,0.17,0.19,0.26
			L131.29,63.82z"/>
		<path class="st1" d="M145.52,66.93v-4.86h1.05l1.25,3.44c0.12,0.32,0.2,0.56,0.25,0.72c0.06-0.18,0.15-0.44,0.28-0.78l1.27-3.38
			h0.94v4.86h-0.68v-4.07l-1.54,4.07h-0.63l-1.53-4.14v4.14H145.52z"/>
		<path class="st1" d="M155.56,66.93l2.03-4.86h0.76l2.17,4.86h-0.8l-0.62-1.47h-2.21l-0.58,1.47H155.56z M157.09,64.93h1.8
			l-0.55-1.35c-0.17-0.41-0.29-0.74-0.38-1.01c-0.07,0.31-0.16,0.62-0.28,0.93L157.09,64.93z"/>
		<path class="st1" d="M165.52,66.93v-4.86h2.35c0.47,0,0.83,0.04,1.08,0.13c0.25,0.09,0.44,0.24,0.59,0.46
			c0.15,0.22,0.22,0.46,0.22,0.73c0,0.34-0.12,0.63-0.37,0.87c-0.24,0.24-0.62,0.39-1.13,0.45c0.19,0.08,0.33,0.16,0.42,0.24
			c0.2,0.17,0.4,0.39,0.58,0.65l0.92,1.32h-0.88l-0.7-1.01c-0.2-0.29-0.37-0.52-0.51-0.67c-0.13-0.15-0.25-0.26-0.36-0.33
			c-0.11-0.06-0.21-0.1-0.32-0.13c-0.08-0.02-0.21-0.02-0.39-0.02h-0.81v2.16H165.52z M166.23,64.21h1.51
			c0.32,0,0.57-0.03,0.75-0.09c0.18-0.06,0.32-0.16,0.41-0.29c0.09-0.13,0.14-0.28,0.14-0.43c0-0.23-0.09-0.42-0.27-0.57
			c-0.18-0.15-0.47-0.22-0.86-0.22h-1.68V64.21z"/>
		<path class="st1" d="M175.27,66.93v-4.86h0.7v2.41l2.63-2.41h0.95l-2.22,1.97l2.32,2.89h-0.92l-1.89-2.46l-0.87,0.77v1.68H175.27z
			"/>
		<path class="st1" d="M184.69,66.93v-4.86h3.83v0.57h-3.13v1.49h2.93v0.57h-2.93v1.66h3.25v0.57H184.69z"/>
		<path class="st1" d="M195.4,66.93v-4.29h-1.75v-0.57h4.2v0.57h-1.75v4.29H195.4z"/>
		<path class="st1" d="M203.13,66.93v-4.86h0.7v4.86H203.13z"/>
		<path class="st1" d="M209.49,66.93v-4.86h0.72l2.78,3.82v-3.82h0.67v4.86h-0.72l-2.78-3.82v3.82H209.49z"/>
		<path class="st1" d="M221.76,65.02v-0.57l2.24,0v1.8c-0.34,0.25-0.7,0.44-1.07,0.57c-0.37,0.13-0.74,0.19-1.13,0.19
			c-0.52,0-0.99-0.1-1.42-0.31c-0.43-0.2-0.75-0.5-0.96-0.89c-0.22-0.39-0.32-0.82-0.32-1.3c0-0.47,0.11-0.91,0.32-1.33
			c0.21-0.41,0.52-0.72,0.93-0.91c0.4-0.2,0.87-0.3,1.4-0.3c0.38,0,0.73,0.06,1.04,0.17c0.31,0.11,0.55,0.27,0.73,0.47
			c0.18,0.2,0.31,0.47,0.4,0.8l-0.63,0.16c-0.08-0.25-0.18-0.44-0.3-0.58c-0.12-0.14-0.29-0.26-0.5-0.34
			c-0.22-0.09-0.46-0.13-0.73-0.13c-0.32,0-0.6,0.05-0.83,0.14c-0.23,0.09-0.42,0.21-0.57,0.35c-0.14,0.14-0.25,0.3-0.33,0.48
			c-0.13,0.3-0.2,0.63-0.2,0.98c0,0.43,0.08,0.8,0.24,1.09c0.16,0.29,0.4,0.51,0.71,0.65c0.31,0.14,0.64,0.21,0.99,0.21
			c0.3,0,0.6-0.05,0.89-0.16c0.29-0.11,0.51-0.22,0.66-0.34v-0.9H221.76z"/>
		<path class="st1" d="M235.76,64.56c0-0.81,0.23-1.44,0.71-1.9c0.47-0.46,1.08-0.68,1.83-0.68c0.49,0,0.93,0.11,1.32,0.32
			c0.39,0.21,0.69,0.51,0.9,0.9c0.2,0.38,0.31,0.82,0.31,1.3c0,0.49-0.11,0.93-0.33,1.32c-0.22,0.39-0.52,0.68-0.92,0.88
			c-0.4,0.2-0.83,0.3-1.29,0.3c-0.5,0-0.94-0.11-1.34-0.33c-0.39-0.22-0.69-0.52-0.89-0.9C235.86,65.4,235.76,64.99,235.76,64.56z
			 M236.48,64.57c0,0.59,0.17,1.05,0.52,1.38c0.34,0.34,0.77,0.51,1.29,0.51c0.53,0,0.96-0.17,1.3-0.51
			c0.34-0.34,0.51-0.82,0.51-1.45c0-0.39-0.08-0.74-0.22-1.03c-0.15-0.3-0.36-0.52-0.64-0.69c-0.28-0.16-0.6-0.24-0.94-0.24
			c-0.5,0-0.92,0.16-1.28,0.47C236.66,63.32,236.48,63.84,236.48,64.57z"/>
		<path class="st1" d="M246.16,66.93v-4.86h0.72l2.78,3.82v-3.82h0.67v4.86h-0.72l-2.78-3.82v3.82H246.16z"/>
		<path class="st1" d="M255.92,66.93v-4.86h0.7v4.29h2.61v0.57H255.92z"/>
		<path class="st1" d="M264.63,66.93v-4.86h0.7v4.86H264.63z"/>
		<path class="st1" d="M270.99,66.93v-4.86h0.72l2.78,3.82v-3.82h0.67v4.86h-0.72l-2.78-3.82v3.82H270.99z"/>
		<path class="st1" d="M280.8,66.93v-4.86h3.83v0.57h-3.13v1.49h2.93v0.57h-2.93v1.66h3.25v0.57H280.8z"/>
	</g>
	<path class="st2" d="M70.03,74.77c-0.8-0.89,0-2.92,1.8-4.53l0,0c1.8-1.6,3.9-2.17,4.7-1.28l13.22,14.81
		c0.8,0.9-0.01,2.93-1.8,4.53l0,0c-1.79,1.6-3.9,2.17-4.7,1.28L70.03,74.77z"/>
	<path class="st3" d="M49.28,15.78c8.83,0,16.67,4.4,21.62,11.2l5.12-3.99c-6.23-7.91-15.89-13-26.74-13
		c-18.79,0-34.02,15.24-34.02,34.03c0,7.85,2.67,15.08,7.13,20.83l5.12-4c-3.36-4.7-5.35-10.53-5.35-16.84
		C22.16,28.43,34.3,15.78,49.28,15.78z"/>
	<path class="st2" d="M76.02,22.99l-5.12,3.99c3.45,4.74,5.49,10.64,5.49,17.04c0,15.6-12.14,28.24-27.12,28.24
		c-8.92,0-16.83-4.48-21.77-11.4l-5.12,4c6.23,8.02,15.95,13.19,26.89,13.19c18.8,0,34.03-15.24,34.03-34.03
		C83.31,36.08,80.58,28.78,76.02,22.99z"/>
	<g>
		<polygon class="st4" points="51.32,36.61 53.44,38.48 54.96,38.76 53.15,36.68 		"/>
		<path class="st4" d="M67.89,42.11c-0.12,2.67,0.63,4.39,0.63,4.39c0.02,2.28-0.52,3.38-0.52,3.38l0.07,0.7
			c1.65-3.3,1.93-6.56,1.93-6.56C68.75,41.87,67.89,42.11,67.89,42.11z"/>
		<path class="st3" d="M68.87,39.75c-3.11-2.89-18.86-6.84-18.86-6.84l-3.97-3.47l-3.9-0.51l-0.2,1.58h-0.06l0.01,0.39l-0.07,0.99
			l0.14,0.64l-1.31,1.34l-5.47,2.18l-5.78,2.14l-4.49-0.22c-0.44,1.95-0.68,3.97-0.68,6.06c0,10.65,6.07,19.81,14.8,23.96l4.04-7.62
			l2.36-4.66c0,0,8.33,3.55,12.71,2.48c1.26-0.31,7.11-0.32,8.24-1.13c2.62-1.88,5.13-10.81,5.05-12.51
			C71.32,42.22,70.57,41.32,68.87,39.75z M53.44,38.48l-2.13-1.87l1.84,0.07l1.81,2.08L53.44,38.48z M68,49.88
			c0,0,0.54-1.11,0.52-3.38c0,0-0.76-1.73-0.63-4.39c0,0,0.86-0.23,2.11,1.91c0,0-0.28,3.27-1.93,6.56L68,49.88z"/>
	</g>
</g>
</svg>
